<svg width="19" height="18" viewBox="0 0 19 18" fill="none" xmlns="http://www.w3.org/2000/svg">
<g id="Icons/Behance/Line" clip-path="url(#clip0_23_9973)">
<path id="Vector" d="M13.127 2.85938C12.7321 2.85938 12.4121 3.17942 12.4121 3.57422C12.4121 3.96901 12.7321 4.28906 13.127 4.28906H15.9863C16.3811 4.28906 16.7012 3.96901 16.7012 3.57422C16.7012 3.17942 16.3811 2.85938 15.9863 2.85938H13.127Z" fill="#777E91"/>
<path id="Vector_2" fill-rule="evenodd" clip-rule="evenodd" d="M10.9824 9.29297C10.9824 7.319 12.5827 5.71875 14.5566 5.71875C16.5306 5.71875 18.1309 7.319 18.1309 9.29297V10.0078C18.1309 10.4026 17.8108 10.7227 17.416 10.7227H12.4121C12.4121 11.9071 13.3722 12.8672 14.5566 12.8672C15.0552 12.8672 15.514 12.6971 15.8782 12.4117C16.0685 12.2626 16.2932 12.1523 16.535 12.1523C17.1475 12.1523 17.5395 12.7851 17.1109 13.2228C16.4621 13.8856 15.5574 14.2969 14.5566 14.2969C12.5827 14.2969 10.9824 12.6966 10.9824 10.7227V9.29297ZM14.5566 7.14844C13.3722 7.14844 12.4121 8.10854 12.4121 9.29297H16.7012C16.7012 8.10854 15.7411 7.14844 14.5566 7.14844Z" fill="#777E91"/>
<path id="Vector_3" fill-rule="evenodd" clip-rule="evenodd" d="M2.4043 4.28906V7.14844H5.97852C6.76811 7.14844 7.4082 6.50834 7.4082 5.71875C7.4082 4.92916 6.76811 4.28906 5.97852 4.28906H2.4043ZM7.97992 7.76092C8.50942 7.24194 8.83789 6.51871 8.83789 5.71875C8.83789 4.13956 7.55771 2.85938 5.97852 2.85938H2.11836C1.48668 2.85938 0.974609 3.37145 0.974609 4.00312V13.0714C0.974609 13.7482 1.52326 14.2969 2.20006 14.2969H5.97852C7.9525 14.2969 9.55273 12.6966 9.55273 10.7227C9.55273 9.49019 8.92896 8.40349 7.97992 7.76092ZM2.4043 8.57812V12.8672H5.97852C7.1629 12.8672 8.12305 11.9071 8.12305 10.7227C8.12305 9.53823 7.1629 8.57812 5.97852 8.57812H2.4043Z" fill="#777E91"/>
</g>
<defs>
<clipPath id="clip0_23_9973">
<rect width="17.1562" height="17.1562" fill="white" transform="translate(0.974609)"/>
</clipPath>
</defs>
</svg>
