<svg width="21" height="20" viewBox="0 0 21 20" fill="none" xmlns="http://www.w3.org/2000/svg">
<g id="Cart" clip-path="url(#clip0_9_5968)">
<path id="Vector" d="M6.72656 14.9998C5.80573 14.9998 5.06823 15.7457 5.06823 16.6665C5.06823 17.5873 5.80573 18.3332 6.72656 18.3332C7.6474 18.3332 8.39323 17.5873 8.39323 16.6665C8.39323 15.7457 7.6474 14.9998 6.72656 14.9998ZM1.72656 1.6665V3.33317H3.39323L6.38906 9.654L5.26406 11.6957C5.1349 11.9373 5.0599 12.2082 5.0599 12.4998C5.0599 13.4207 5.80573 14.1665 6.72656 14.1665H16.7266V12.4998H7.08073C6.96406 12.4998 6.8724 12.4082 6.8724 12.2915C6.8724 12.254 6.88073 12.2207 6.8974 12.1915L7.64323 10.8332H13.8516C14.4766 10.8332 15.0224 10.4873 15.3099 9.97484L18.2891 4.5665C18.3557 4.44984 18.3932 4.31234 18.3932 4.1665C18.3932 3.94549 18.3054 3.73353 18.1492 3.57725C17.9929 3.42097 17.7809 3.33317 17.5599 3.33317H5.23906L4.4474 1.6665H1.72656ZM15.0599 14.9998C14.1391 14.9998 13.4016 15.7457 13.4016 16.6665C13.4016 17.5873 14.1391 18.3332 15.0599 18.3332C15.9807 18.3332 16.7266 17.5873 16.7266 16.6665C16.7266 15.7457 15.9807 14.9998 15.0599 14.9998Z" fill="white"/>
</g>
<defs>
<clipPath id="clip0_9_5968">
<rect width="20" height="20" fill="white" transform="translate(0.893555)"/>
</clipPath>
</defs>
</svg>
