<svg width="72" height="71" viewBox="0 0 72 71" fill="none" xmlns="http://www.w3.org/2000/svg">
<g id="contact" clip-path="url(#clip0_0_671)">
<g id="Layer 2">
<path id="Vector" d="M3.67854 35.2615C3.67854 11.7538 12.4939 2.93848 36.0016 2.93848C59.5092 2.93848 68.3246 11.7538 68.3246 35.2615C68.3246 58.7691 59.5092 67.5845 36.0016 67.5845C12.4939 67.5845 3.67854 58.7691 3.67854 35.2615Z" fill="#FF7B00"/>
<path id="Vector_2" d="M35.9998 31.559C39.846 31.559 42.9639 28.4411 42.9639 24.5949C42.9639 20.7487 39.846 17.6307 35.9998 17.6307C32.1536 17.6307 29.0357 20.7487 29.0357 24.5949C29.0357 28.4411 32.1536 31.559 35.9998 31.559Z" fill="#FFE588"/>
<path id="Vector_3" d="M36.0003 52.8921C38.6473 52.8971 41.2603 52.2958 43.639 51.1345C46.0177 49.9732 48.0988 48.2826 49.7229 46.1924C49.1612 42.9604 47.4768 40.0303 44.9664 37.9186C42.456 35.8069 39.2808 34.649 36.0003 34.649C32.7199 34.649 29.5447 35.8069 27.0343 37.9186C24.5239 40.0303 22.8394 42.9604 22.2777 46.1924C23.9018 48.2826 25.983 49.9732 28.3617 51.1345C30.7403 52.2958 33.3533 52.8971 36.0003 52.8921Z" fill="white"/>
</g>
</g>
<defs>
<clipPath id="clip0_0_671">
<rect width="70.5229" height="70.5229" fill="white" transform="translate(0.738525)"/>
</clipPath>
</defs>
</svg>
