<svg width="18" height="18" viewBox="0 0 18 18" fill="none" xmlns="http://www.w3.org/2000/svg">
<g id="Icons/Dribbble/Line">
<path id="Vector" fill-rule="evenodd" clip-rule="evenodd" d="M8.80859 14.2969C11.967 14.2969 14.5273 11.7365 14.5273 8.57813C14.5273 5.41975 11.967 2.85938 8.80859 2.85938C5.65021 2.85938 3.08984 5.41975 3.08984 8.57813C3.08984 11.7365 5.65021 14.2969 8.80859 14.2969ZM8.80859 15.7266C12.7565 15.7266 15.957 12.5261 15.957 8.57813C15.957 4.63015 12.7565 1.42969 8.80859 1.42969C4.86062 1.42969 1.66016 4.63015 1.66016 8.57813C1.66016 12.5261 4.86062 15.7266 8.80859 15.7266Z" fill="#777E91"/>
<path id="Vector_2" d="M11.2921 15.2834C11.0383 13.4747 10.6154 11.8332 10.0201 10.2816C8.56305 10.988 6.93334 12.2223 4.69248 14.4234C4.30042 14.1468 3.93743 13.8317 3.60899 13.4837C5.96252 11.1628 7.76006 9.77514 9.46346 8.963C9.24494 8.48927 9.00932 8.02227 8.75641 7.55955C6.75093 8.19161 4.46426 8.52466 1.66016 8.57227C1.66055 8.0816 1.7104 7.60244 1.80497 7.13956C4.27971 7.08654 6.28164 6.80011 8.01433 6.29103C7.21008 5.00052 6.26744 3.7267 5.18412 2.41543C5.60653 2.16647 6.05678 1.95969 6.52906 1.8009C7.62224 3.1445 8.58006 4.46504 9.40027 5.81551C10.9413 5.20643 12.3071 4.38438 13.6705 3.33777C14.021 3.66306 14.3388 4.02307 14.6183 4.41232C13.2002 5.50925 11.7541 6.3983 10.1162 7.06851C10.3572 7.51866 10.5833 7.9738 10.7946 8.43573C12.4148 7.9224 14.0097 7.86936 15.9218 7.86393C15.9451 8.09883 15.957 8.33716 15.957 8.5782C15.957 8.81975 15.945 9.05851 15.9216 9.2939C14.0743 9.30048 12.7042 9.35252 11.3512 9.75984C11.9322 11.2721 12.3619 12.8708 12.6379 14.6156C12.2171 14.883 11.7665 15.1077 11.2921 15.2834Z" fill="#777E91"/>
</g>
</svg>
