<svg width="18" height="18" viewBox="0 0 18 18" fill="none" xmlns="http://www.w3.org/2000/svg">
<g id="Icons/Facebook/Line">
<path id="Vector" fill-rule="evenodd" clip-rule="evenodd" d="M8.57813 14.2969C11.7365 14.2969 14.2969 11.7365 14.2969 8.57813C14.2969 5.41975 11.7365 2.85938 8.57813 2.85938C5.41975 2.85938 2.85938 5.41975 2.85938 8.57813C2.85938 11.7365 5.41975 14.2969 8.57813 14.2969ZM8.57813 15.7266C12.5261 15.7266 15.7266 12.5261 15.7266 8.57813C15.7266 4.63015 12.5261 1.42969 8.57813 1.42969C4.63015 1.42969 1.42969 4.63015 1.42969 8.57813C1.42969 12.5261 4.63015 15.7266 8.57813 15.7266Z" fill="#777E91"/>
<path id="Vector_2" d="M8.57813 7.14844C8.57813 6.75364 8.89816 6.43359 9.29297 6.43359H10.0078C10.4026 6.43359 10.7227 6.11355 10.7227 5.71875C10.7227 5.32396 10.4026 5.00391 10.0078 5.00391H9.29297C8.10854 5.00391 7.14844 5.96405 7.14844 7.14844V8.57812H6.43359C6.0388 8.57812 5.71875 8.89816 5.71875 9.29297C5.71875 9.68778 6.03879 10.0078 6.43359 10.0078H7.14844V14.2969C7.14844 14.6917 7.46847 15.0117 7.86328 15.0117C8.25809 15.0117 8.57813 14.6917 8.57813 14.2969V10.0078H10.0078C10.4026 10.0078 10.7227 9.68778 10.7227 9.29297C10.7227 8.89816 10.4026 8.57812 10.0078 8.57812H8.57813V7.14844Z" fill="#777E91"/>
</g>
</svg>
