<svg width="83" height="83" viewBox="0 0 83 83" fill="none" xmlns="http://www.w3.org/2000/svg">
<g id="Group 1000010716">
<g id="Group 1000010759">
<g id="Color">
<g id="24-nft">
<g id="gradient">
<path id="Vector" d="M57.9677 27H24.629C24.2816 27 24 27.2816 24 27.629V54.0484C24 54.3958 24.2816 54.6774 24.629 54.6774H57.9677C58.3151 54.6774 58.5967 54.3958 58.5967 54.0484V27.629C58.5967 27.2816 58.3151 27 57.9677 27Z" fill="#9A1AE9"/>
<path id="Vector_2" d="M29.5679 41.6178C29.6852 41.5179 29.8352 41.4645 29.9893 41.4679C30.1433 41.4712 30.2908 41.5309 30.4038 41.6358L34.3207 45.2729L41.759 36.3473C41.8132 36.2823 41.8799 36.2289 41.9552 36.1902C42.0305 36.1516 42.1129 36.1286 42.1973 36.1225C42.2817 36.1164 42.3665 36.1275 42.4466 36.155C42.5266 36.1825 42.6003 36.2258 42.6632 36.2825L48.4908 41.527L58.5967 30.529V27.629C58.5967 27.4622 58.5305 27.3022 58.4125 27.1842C58.2945 27.0663 58.1345 27 57.9677 27H24.629C24.4622 27 24.3022 27.0663 24.1842 27.1842C24.0663 27.3022 24 27.4622 24 27.629V46.3598L29.5679 41.6178Z" fill="#FFBB33"/>
<path id="Vector_3" d="M34.0642 38.0082C35.9749 38.0082 37.5238 36.4593 37.5238 34.5485C37.5238 32.6378 35.9749 31.0889 34.0642 31.0889C32.1534 31.0889 30.6045 32.6378 30.6045 34.5485C30.6045 36.4593 32.1534 38.0082 34.0642 38.0082Z" fill="#390460"/>
<path id="Vector_4" d="M52.621 59.0808C57.6583 59.0808 61.7419 54.9972 61.7419 49.9598C61.7419 44.9225 57.6583 40.8389 52.621 40.8389C47.5836 40.8389 43.5 44.9225 43.5 49.9598C43.5 54.9972 47.5836 59.0808 52.621 59.0808Z" fill="white"/>
<g id="Group">
<path id="Vector_5" d="M50.4715 48.9587L52.3586 49.8236C52.4408 49.8613 52.5302 49.8808 52.6206 49.8808C52.7111 49.8808 52.8005 49.8613 52.8827 49.8236L54.7698 48.9587C54.919 48.8903 55.0356 48.7663 55.0946 48.6132C55.1537 48.4601 55.1506 48.29 55.086 48.1391L53.1989 43.7359C53.1504 43.6227 53.0698 43.5262 52.967 43.4584C52.8642 43.3906 52.7438 43.3545 52.6206 43.3545C52.4975 43.3545 52.3771 43.3906 52.2743 43.4584C52.1715 43.5262 52.0909 43.6227 52.0424 43.7359L50.1553 48.1391C50.0907 48.29 50.0876 48.4601 50.1466 48.6132C50.2057 48.7663 50.3223 48.8903 50.4715 48.9587Z" fill="#390460"/>
<path id="Vector_6" d="M54.2456 50.6456L52.6206 51.3903L50.9956 50.6456C50.8813 50.5932 50.7539 50.5763 50.6299 50.597C50.5059 50.6177 50.3909 50.6751 50.2998 50.7618C50.2088 50.8485 50.1458 50.9605 50.119 51.0833C50.0921 51.2062 50.1028 51.3342 50.1495 51.451L52.0366 56.1687C52.0832 56.2854 52.1638 56.3855 52.2679 56.456C52.372 56.5265 52.4949 56.5642 52.6206 56.5642C52.7463 56.5642 52.8692 56.5265 52.9733 56.456C53.0774 56.3855 53.158 56.2854 53.2047 56.1687L55.0918 51.451C55.1384 51.3342 55.1491 51.2062 55.1223 51.0833C55.0955 50.9605 55.0325 50.8485 54.9414 50.7618C54.8503 50.6751 54.7353 50.6177 54.6113 50.597C54.4873 50.5763 54.3599 50.5932 54.2456 50.6456Z" fill="#390460"/>
</g>
</g>
</g>
</g>
<circle id="Ellipse 1268" cx="41.3536" cy="41.0967" r="40.0967" stroke="url(#paint0_linear_9_6022)" stroke-width="2"/>
</g>
</g>
<defs>
<linearGradient id="paint0_linear_9_6022" x1="12.3742" y1="-20.7224" x2="87.6659" y2="-4.09374" gradientUnits="userSpaceOnUse">
<stop stop-color="#FF990D"/>
<stop offset="1" stop-color="#9D00FF"/>
</linearGradient>
</defs>
</svg>
