<svg width="83" height="83" viewBox="0 0 83 83" fill="none" xmlns="http://www.w3.org/2000/svg">
<g id="Group 1000010716">
<circle id="Ellipse 1268" cx="41.3536" cy="41.0967" r="40.0967" stroke="url(#paint0_linear_9_5980)" stroke-width="2"/>
<g id="_x31_7-Wallet">
<path id="Vector" d="M50.8822 33.0568C50.8822 37.9879 46.8834 42.0247 41.9572 42.0247C37.031 42.0247 33.0322 37.9964 33.0322 33.0568C33.0322 28.1173 37.031 24.123 41.9572 24.123C46.8834 24.123 50.8822 28.1173 50.8822 33.0568Z" fill="url(#paint1_linear_9_5980)"/>
<path id="Vector_2" d="M41.9598 39.3846C45.4416 39.3846 48.2643 36.5592 48.2643 33.0739C48.2643 29.5886 45.4416 26.7632 41.9598 26.7632C38.4779 26.7632 35.6553 29.5886 35.6553 33.0739C35.6553 36.5592 38.4779 39.3846 41.9598 39.3846Z" fill="#FFDA00"/>
<path id="Vector_3" d="M45.2084 34.5813C45.2084 33.6615 44.6894 32.861 43.9322 32.4436C44.1449 32.12 44.264 31.7368 44.264 31.328C44.264 30.5104 43.7875 29.8121 43.0899 29.4799V28.3643H41.8732V29.284H41.2351V28.3643H40.0184V29.284H39.4824V37.0085H40.0184V37.9283H41.2351V37.0085H41.8732V37.9283H43.0899V36.9829C44.2895 36.8296 45.2084 35.8162 45.2084 34.5813ZM40.7076 30.5019H42.222C42.6815 30.5019 43.0473 30.8766 43.0473 31.328C43.0473 31.7879 42.673 32.1541 42.222 32.1541H40.7076V30.5019ZM42.7836 35.7906H40.7076V33.3719H42.7836C43.4472 33.3719 43.9917 33.917 43.9917 34.5813C43.9917 35.2456 43.4472 35.7906 42.7836 35.7906Z" fill="#FF9100"/>
<path id="Vector_4" d="M55.1289 61.9534H29.5536C27.5457 61.9534 25.9121 60.3182 25.9121 58.3083V39.4444C25.9121 37.4345 27.5457 35.7993 29.5536 35.7993H55.1289C57.1368 35.7993 58.7703 37.4345 58.7703 39.4444V58.3169C58.7703 60.3268 57.1453 61.9534 55.1289 61.9534Z" fill="#9A1AE9"/>
<path id="Vector_5" d="M53.0546 53.326H58.8741C59.6739 53.326 60.312 52.6787 60.312 51.8867V46.598C60.312 45.7974 59.6654 45.1587 58.8741 45.1587H53.0546C50.7999 45.1587 48.9707 46.9897 48.9707 49.2466C48.9707 51.4949 50.7999 53.326 53.0546 53.326Z" fill="#390460"/>
<path id="Vector_6" d="M52.9666 50.8729C53.8687 50.8729 54.6001 50.1408 54.6001 49.2377C54.6001 48.3346 53.8687 47.6025 52.9666 47.6025C52.0644 47.6025 51.333 48.3346 51.333 49.2377C51.333 50.1408 52.0644 50.8729 52.9666 50.8729Z" fill="#FFE953"/>
<path id="Vector_7" d="M32.7701 23.2458C32.7701 25.9541 30.575 28.1769 27.8694 28.1769C25.1638 28.1769 22.9688 25.9626 22.9688 23.2458C22.9688 20.5291 25.1638 18.3403 27.8694 18.3403C30.575 18.3403 32.7701 20.5376 32.7701 23.2458Z" fill="url(#paint2_linear_9_5980)"/>
<path id="Vector_8" d="M27.87 26.7293C29.7825 26.7293 31.3328 25.1774 31.3328 23.2631C31.3328 21.3487 29.7825 19.7969 27.87 19.7969C25.9576 19.7969 24.4072 21.3487 24.4072 23.2631C24.4072 25.1774 25.9576 26.7293 27.87 26.7293Z" fill="#FFDA00"/>
<path id="Vector_9" d="M60.7121 26.3457C60.7121 28.4833 58.9764 30.2377 56.8409 30.2377C54.7054 30.2377 52.9697 28.4918 52.9697 26.3457C52.9697 24.1995 54.7054 22.4707 56.8409 22.4707C58.9764 22.4707 60.7121 24.1995 60.7121 26.3457Z" fill="url(#paint3_linear_9_5980)"/>
<path id="Vector_10" d="M56.8382 29.0969C58.3513 29.0969 59.5778 27.8691 59.5778 26.3546C59.5778 24.8401 58.3513 23.6123 56.8382 23.6123C55.3252 23.6123 54.0986 24.8401 54.0986 26.3546C54.0986 27.8691 55.3252 29.0969 56.8382 29.0969Z" fill="#FFDA00"/>
</g>
</g>
<defs>
<linearGradient id="paint0_linear_9_5980" x1="12.3742" y1="-20.7224" x2="87.6659" y2="-4.09374" gradientUnits="userSpaceOnUse">
<stop stop-color="#FF990D"/>
<stop offset="1" stop-color="#9D00FF"/>
</linearGradient>
<linearGradient id="paint1_linear_9_5980" x1="33.029" y1="33.0705" x2="50.8791" y2="33.0705" gradientUnits="userSpaceOnUse">
<stop stop-color="#FFB600"/>
<stop offset="1" stop-color="#FF9100"/>
</linearGradient>
<linearGradient id="paint2_linear_9_5980" x1="22.9642" y1="23.2587" x2="32.7738" y2="23.2587" gradientUnits="userSpaceOnUse">
<stop stop-color="#FFB600"/>
<stop offset="1" stop-color="#FF9100"/>
</linearGradient>
<linearGradient id="paint3_linear_9_5980" x1="52.967" y1="26.3502" x2="60.7132" y2="26.3502" gradientUnits="userSpaceOnUse">
<stop stop-color="#FFB600"/>
<stop offset="1" stop-color="#FF9100"/>
</linearGradient>
</defs>
</svg>
