<svg width="83" height="83" viewBox="0 0 83 83" fill="none" xmlns="http://www.w3.org/2000/svg">
<g id="Group 1000010758">
<g id="Group 1000010716">
<circle id="Ellipse 1268" cx="41.3536" cy="41.0967" r="40.0967" stroke="url(#paint0_linear_23_10937)" stroke-width="2"/>
</g>
<g id="Group 1000010719">
<g id="Group 1000003244">
<path id="Vector" d="M46.0342 35.9736L41.6113 41.8708L37.1885 35.9736H23.4775L27.9004 41.8708V57.056H55.3223V41.8708L59.7451 35.9736H46.0342Z" fill="#9A1AE9"/>
<path id="Vector_2" d="M47.5092 28.6025L41.612 35.9739L35.7148 28.6025H38.6634V23.7373H44.5606V28.6025H47.5092Z" fill="#FFE953"/>
<path id="Vector_3" d="M27.1631 57.0564C27.1631 57.4635 27.4931 57.7935 27.9003 57.7935H55.3221C55.7293 57.7935 56.0592 57.4635 56.0592 57.0564V42.1168L60.3347 36.4163C60.5023 36.1928 60.5291 35.8939 60.4044 35.6443C60.2794 35.3946 60.0243 35.2368 59.745 35.2368H46.034C45.802 35.2368 45.5837 35.3459 45.4443 35.5317L41.6112 40.6425L37.778 35.5317C37.6386 35.3459 37.4204 35.2368 37.1883 35.2368H23.4774C23.1981 35.2368 22.9429 35.3946 22.818 35.6443C22.6933 35.8939 22.7201 36.1928 22.8877 36.4163L27.1631 42.1168V47.5472C27.1631 47.9543 27.4931 48.2843 27.9003 48.2843C28.3074 48.2843 28.6374 47.9543 28.6374 47.5472V42.6083H40.874V56.3192H28.6374V53.4443C28.6374 53.0372 28.3074 52.7072 27.9003 52.7072C27.4931 52.7072 27.1631 53.0372 27.1631 53.4443V57.0564ZM54.5849 56.3192H42.3483V42.6083H54.5849V56.3192ZM46.4026 36.7111H58.2707L54.9535 41.134H43.0855L46.4026 36.7111ZM28.2688 41.134L24.9517 36.7111H36.8197L40.1369 41.134H28.2688Z" fill="#390460"/>
<path id="Vector_4" d="M35.0504 28.283C34.9275 28.5384 34.962 28.8416 35.1391 29.0627L41.0363 36.4342C41.1762 36.609 41.3879 36.7109 41.6119 36.7109C41.8359 36.7109 42.0476 36.609 42.1875 36.4342L48.0847 29.0627C48.2618 28.8416 48.2963 28.5384 48.1737 28.283C48.0507 28.0276 47.7924 27.8652 47.5091 27.8652H45.2976V23.7371C45.2976 23.33 44.9677 23 44.5605 23H38.6633C38.2562 23 37.9262 23.33 37.9262 23.7371V27.8652H35.7147C35.4314 27.8652 35.1731 28.0276 35.0504 28.283ZM38.6633 29.3395C39.0705 29.3395 39.4005 29.0095 39.4005 28.6023V24.4743H43.8233V28.6023C43.8233 29.0095 44.1533 29.3395 44.5605 29.3395H45.9755L41.6119 34.7938L37.2483 29.3395H38.6633Z" fill="#FF9A00"/>
<path id="Vector_5" d="M27.9002 51.2331C28.3071 51.2331 28.6374 50.9028 28.6374 50.4959C28.6374 50.0891 28.3071 49.7588 27.9002 49.7588C27.4934 49.7588 27.1631 50.0891 27.1631 50.4959C27.1631 50.9028 27.4934 51.2331 27.9002 51.2331Z" fill="#390460"/>
</g>
</g>
</g>
<defs>
<linearGradient id="paint0_linear_23_10937" x1="12.3742" y1="-20.7224" x2="87.6659" y2="-4.09374" gradientUnits="userSpaceOnUse">
<stop stop-color="#FF990D"/>
<stop offset="1" stop-color="#9D00FF"/>
</linearGradient>
</defs>
</svg>
