<svg width="83" height="83" viewBox="0 0 83 83" fill="none" xmlns="http://www.w3.org/2000/svg">
<g id="Group 1000010716">
<circle id="Ellipse 1268" cx="41.3536" cy="41.0967" r="40.0967" stroke="url(#paint0_linear_9_6029)" stroke-width="2"/>
<g id="Group 1000010732">
<g id="Group 1000010748">
<path id="Vector" d="M31.0063 49.255H55.6358C57.9038 49.255 59.7427 47.4107 59.7427 45.1357V31.1205C59.7427 28.8445 57.904 27 55.6358 27H31.0145C29.7574 27 28.5929 27.6623 27.9466 28.7433L23.4176 36.3161C22.7363 37.4558 22.7386 38.8803 23.4234 40.0178L26.9931 45.9438L27.9442 47.5224C28.5928 48.5976 29.7527 49.255 31.0063 49.255ZM32.974 39.2298C32.9611 39.2556 32.9471 39.2827 32.9307 39.3086C32.9166 39.3345 32.9014 39.3603 32.885 39.3862C32.8381 39.4627 32.7853 39.5379 32.729 39.6097C32.7126 39.6321 32.6939 39.6544 32.6751 39.6755C32.634 39.725 32.5894 39.772 32.5437 39.8191C31.6114 40.753 30.1033 40.753 29.1721 39.8191C29.1475 39.7944 29.1253 39.7696 29.1017 39.745C29.0466 39.685 28.995 39.6227 28.9481 39.5591C28.2481 38.6215 28.3231 37.2889 29.1721 36.4372C30.1032 35.5033 31.6114 35.5033 32.5437 36.4372C33.2977 37.1936 33.4408 38.3287 32.974 39.2298Z" fill="#9A1AE9"/>
<g id="Group 1000010747">
<path id="Vector_2" d="M50.6894 58.7629L56.331 47.9916L57.1879 46.3561C57.2796 46.1796 57.3577 45.9999 57.4222 45.8182C57.7263 44.9649 57.7314 44.0594 57.4785 43.2332C57.1692 42.22 56.4726 41.325 55.4625 40.7923L35.6711 30.3633C34.5579 29.7763 33.2199 29.8202 32.1463 30.4751L24.6263 35.0665C24.216 35.3171 23.8683 35.643 23.5954 36.019C23.1716 36.6007 22.928 37.3047 22.9103 38.0421C22.9092 38.0776 22.9082 38.1131 22.9082 38.1476C22.9082 38.2133 22.9103 38.2792 22.9145 38.346L22.9228 38.4776L23.3278 45.2581L23.4371 47.0983C23.5131 48.3527 24.2347 49.4766 25.3447 50.0614L45.1436 60.4943C47.1512 61.5525 49.6346 60.7776 50.6894 58.7629ZM29.1725 39.8198C29.1475 39.7947 29.1257 39.7697 29.1016 39.7456C29.0464 39.6851 28.9954 39.6224 28.9486 39.5597C28.2479 38.6218 28.3228 37.289 29.1725 36.4378C30.1033 35.5031 31.6112 35.5031 32.5442 36.4378C33.2981 37.194 33.4408 38.3293 32.9742 39.2296C32.9617 39.2557 32.9472 39.2829 32.9305 39.309C32.917 39.3351 32.9013 39.3601 32.8847 39.3862C32.8379 39.4624 32.7858 39.5376 32.7296 39.6097C32.7129 39.6317 32.6941 39.6546 32.6754 39.6755C32.6337 39.7246 32.59 39.7715 32.5442 39.8196C31.6111 40.7535 30.1033 40.7535 29.1725 39.8198Z" fill="#FFE953"/>
<path id="Vector_3" d="M50.689 58.7628L56.3306 47.9915L57.1876 46.356C57.2792 46.1795 57.3573 45.9998 57.4218 45.8182C57.7259 44.9648 57.7311 44.0593 57.4781 43.2331C57.1689 42.2199 56.4722 41.3249 55.4621 40.7922L35.6707 30.3633C34.5575 29.7763 33.2196 29.8202 32.146 30.4751L24.6259 35.0664C24.2161 35.3168 23.8688 35.6421 23.596 36.0176L23.4174 36.3163C23.0777 36.8846 22.9082 37.5236 22.9082 38.1625C22.9084 38.1982 22.9102 38.2341 22.9116 38.27C22.9124 38.2984 22.9131 38.3268 22.9145 38.3553L22.9203 38.4471C22.9636 38.9934 23.1305 39.532 23.4232 40.0181L26.993 45.9441L27.944 47.5227C28.1512 47.866 28.4109 48.1663 28.7088 48.4167L35.8877 55.6173L45.143 60.4945C47.1508 61.5525 49.6343 60.7775 50.689 58.7628ZM32.9738 39.2296C32.9613 39.2557 32.9467 39.2829 32.9301 39.309C32.9165 39.3351 32.9009 39.3601 32.8843 39.3862C32.8375 39.4625 32.7854 39.5377 32.7292 39.6097C32.7125 39.6316 32.6937 39.6546 32.675 39.6755C32.6334 39.7246 32.5896 39.7715 32.5438 39.8197C31.6109 40.7534 30.103 40.7534 29.1721 39.8197C29.1471 39.7946 29.1253 39.7695 29.1013 39.7455C29.0461 39.6849 28.995 39.6222 28.9482 39.5596C28.2474 38.6216 28.3224 37.289 29.1721 36.4378C30.103 35.503 31.6108 35.503 32.5438 36.4378C33.2976 37.1939 33.4403 38.3293 32.9738 39.2296Z" fill="url(#paint1_linear_9_6029)"/>
<path id="Vector_4" d="M31.4248 38.6483C30.5446 39.5312 29.1177 39.5312 28.2376 38.6483L22.6601 33.0538C21.78 32.171 21.78 30.7398 22.6601 29.8569C23.5403 28.9741 24.9672 28.9741 25.8473 29.8569L31.4249 35.4514C32.3049 36.3343 32.3049 37.7655 31.4248 38.6483Z" fill="url(#paint2_linear_9_6029)"/>
</g>
</g>
<g id="Group 1000010749">
<path id="Vector_5" d="M30.7028 42.4694C30.7783 42.3388 30.9016 42.2357 31.0732 42.1605C31.2445 42.0853 31.3921 42.0833 31.5155 42.1545C31.5909 42.1981 31.6562 42.2947 31.7118 42.4443C31.7672 42.5939 31.8168 42.7493 31.8607 42.9109C31.9045 43.0725 32.0054 43.2578 32.1638 43.4668C32.322 43.6757 32.5314 43.8552 32.7921 44.0057C33.183 44.2314 33.5506 44.3192 33.895 44.2691C34.2393 44.219 34.5154 44.0142 34.7231 43.6545C34.9146 43.3227 34.9594 42.9798 34.8576 42.6258C34.7555 42.2719 34.5795 41.9352 34.3298 41.6157C34.0799 41.2962 33.8343 40.9654 33.593 40.6233C33.3518 40.281 33.204 39.8916 33.15 39.4546C33.0959 39.0177 33.2007 38.5711 33.4643 38.1146C33.6743 37.7509 33.9267 37.4758 34.2219 37.2894C34.5169 37.1029 34.826 37.0068 35.1494 37.0014C35.4726 36.9958 35.7849 37.0367 36.0866 37.124C36.3881 37.2112 36.6865 37.3398 36.9814 37.5101C37.1665 37.617 37.3533 37.7408 37.542 37.8815C37.7304 38.022 37.9085 38.1769 38.076 38.3463C38.2433 38.5156 38.3628 38.6887 38.4342 38.866C38.5054 39.0432 38.504 39.1964 38.4293 39.3258C38.3546 39.4551 38.2383 39.5615 38.0801 39.6454C37.922 39.7293 37.7743 39.7315 37.6373 39.6523C37.5687 39.6127 37.495 39.5265 37.4164 39.3935C37.3377 39.2604 37.2196 39.1047 37.0622 38.9261C36.9047 38.7477 36.6989 38.5851 36.4453 38.4387C36.0544 38.213 35.6974 38.1107 35.3745 38.1317C35.0515 38.1527 34.7982 38.3224 34.6146 38.6404C34.4949 38.8478 34.4537 39.0616 34.4913 39.2815C34.529 39.5014 34.6174 39.7163 34.757 39.9258C34.8966 40.1355 35.0592 40.3563 35.2455 40.5882C35.4316 40.8202 35.6071 41.0665 35.7718 41.3276C35.9364 41.5886 36.0696 41.8569 36.1713 42.1323C36.2729 42.4077 36.3036 42.7228 36.2633 43.0775C36.2231 43.4323 36.0951 43.7965 35.8795 44.1698C35.4691 44.8806 34.942 45.2985 34.2985 45.4235C33.6549 45.5484 32.9798 45.407 32.2736 44.9993C31.6426 44.6349 31.1826 44.1929 30.8932 43.6727C30.6033 43.1527 30.5399 42.7516 30.7028 42.4694Z" fill="white"/>
<path id="Vector_6" d="M35.4242 46.1039C35.448 46.0628 35.4692 46.0338 35.4881 46.0172L41.3914 40.5095C41.6214 40.3126 41.9367 40.3295 42.3369 40.5606C42.7444 40.7958 42.9252 41.0539 42.8795 41.3349L41.0562 49.1964C41.0449 49.2475 41.0331 49.2839 41.0207 49.3055C40.9458 49.4352 40.8013 49.5006 40.5876 49.5019C40.3735 49.5032 40.1772 49.4522 39.9982 49.3488C39.7817 49.2238 39.6905 49.0715 39.7247 48.8915L40.1519 47.1678L37.6234 45.708L36.3516 46.939C36.2158 47.0637 36.0452 47.0666 35.84 46.9482C35.6757 46.8533 35.5474 46.7199 35.4553 46.5477C35.3633 46.3755 35.3528 46.2276 35.4242 46.1039ZM38.3714 44.9843L40.4132 46.1632L41.4264 42.0268L38.3714 44.9843Z" fill="white"/>
<path id="Vector_7" d="M41.6832 49.8406L45.6266 43.0104C45.6941 42.8936 45.7977 42.8364 45.9379 42.8394C46.0778 42.8423 46.2233 42.8873 46.3743 42.9744C46.525 43.0614 46.6367 43.165 46.7094 43.2848C46.7819 43.4047 46.7844 43.5231 46.7169 43.64L43.125 49.8614L45.7995 51.4055C45.9023 51.4649 45.955 51.5596 45.9578 51.6895C45.9603 51.8195 45.924 51.9499 45.8486 52.0804C45.7731 52.2112 45.6783 52.3078 45.5646 52.3704C45.4506 52.4331 45.3425 52.4347 45.2396 52.3753L41.9583 50.4808C41.8279 50.4055 41.7336 50.3076 41.6754 50.1869C41.6169 50.066 41.6196 49.9507 41.6832 49.8406Z" fill="white"/>
<path id="Vector_8" d="M46.5904 52.6736L50.5279 45.8538C50.5913 45.7438 50.6899 45.6837 50.8237 45.6738C50.9574 45.6639 51.0894 45.6965 51.2197 45.7718L54.8816 47.886C54.9981 47.9532 55.0595 48.053 55.0657 48.1848C55.0717 48.3169 55.0391 48.4446 54.9676 48.5684C54.8881 48.7061 54.788 48.8042 54.6673 48.8628C54.5464 48.9215 54.4313 48.919 54.3217 48.8557L51.2667 47.0919L49.9026 49.4547L51.4867 50.3693C51.5963 50.4325 51.6589 50.5261 51.6745 50.6497C51.6899 50.7733 51.6621 50.897 51.5906 51.0208C51.527 51.1309 51.4396 51.2111 51.3282 51.2614C51.2168 51.3118 51.1028 51.3032 50.9863 51.2359L49.4022 50.3214L48.0321 52.6944L51.0871 54.4582C51.1967 54.5215 51.2564 54.6202 51.266 54.7541C51.2755 54.8881 51.2406 55.0238 51.1612 55.1612C51.0897 55.2851 50.9954 55.3774 50.8781 55.438C50.7607 55.4987 50.6438 55.4952 50.5273 55.4279L46.8654 53.3138C46.7351 53.2385 46.6408 53.1406 46.5825 53.0198C46.5241 52.899 46.5268 52.7837 46.5904 52.6736Z" fill="white"/>
</g>
</g>
</g>
<defs>
<linearGradient id="paint0_linear_9_6029" x1="12.3742" y1="-20.7224" x2="87.6659" y2="-4.09374" gradientUnits="userSpaceOnUse">
<stop stop-color="#FF990D"/>
<stop offset="1" stop-color="#9D00FF"/>
</linearGradient>
<linearGradient id="paint1_linear_9_6029" x1="44.7227" y1="53.6496" x2="40.3538" y2="41.5271" gradientUnits="userSpaceOnUse">
<stop stop-color="#FF964A" stop-opacity="0"/>
<stop offset="1" stop-color="#FF964A"/>
</linearGradient>
<linearGradient id="paint2_linear_9_6029" x1="27.8824" y1="33.4105" x2="25.44" y2="35.8459" gradientUnits="userSpaceOnUse">
<stop stop-color="#FFF465"/>
<stop offset="1" stop-color="#FFE600"/>
</linearGradient>
</defs>
</svg>
