<svg width="18" height="18" viewBox="0 0 18 18" fill="none" xmlns="http://www.w3.org/2000/svg">
<g id="Icons/Instagram/Line">
<path id="Vector" fill-rule="evenodd" clip-rule="evenodd" d="M11.9238 2.85938H6.20508C4.62589 2.85938 3.3457 4.13956 3.3457 5.71875V11.4375C3.3457 13.0167 4.62589 14.2969 6.20508 14.2969H11.9238C13.503 14.2969 14.7832 13.0167 14.7832 11.4375V5.71875C14.7832 4.13956 13.503 2.85938 11.9238 2.85938ZM6.20508 1.42969C3.83629 1.42969 1.91602 3.34997 1.91602 5.71875V11.4375C1.91602 13.8063 3.83629 15.7266 6.20508 15.7266H11.9238C14.2926 15.7266 16.2129 13.8063 16.2129 11.4375V5.71875C16.2129 3.34997 14.2926 1.42969 11.9238 1.42969H6.20508Z" fill="#777E91"/>
<path id="Vector_2" d="M12.6387 5.71875C13.0335 5.71875 13.3535 5.3987 13.3535 5.00391C13.3535 4.60911 13.0335 4.28906 12.6387 4.28906C12.2439 4.28906 11.9238 4.60911 11.9238 5.00391C11.9238 5.3987 12.2439 5.71875 12.6387 5.71875Z" fill="#777E91"/>
<path id="Vector_3" fill-rule="evenodd" clip-rule="evenodd" d="M12.6387 8.57813C12.6387 10.5521 11.0384 12.1523 9.06445 12.1523C7.09047 12.1523 5.49023 10.5521 5.49023 8.57813C5.49023 6.60414 7.09047 5.00391 9.06445 5.00391C11.0384 5.00391 12.6387 6.60414 12.6387 8.57813ZM11.209 8.57813C11.209 9.76255 10.2489 10.7227 9.06445 10.7227C7.88003 10.7227 6.91992 9.76255 6.91992 8.57813C6.91992 7.3937 7.88003 6.43359 9.06445 6.43359C10.2489 6.43359 11.209 7.3937 11.209 8.57813Z" fill="#777E91"/>
</g>
</svg>
