<svg width="25" height="24" viewBox="0 0 25 24" fill="none" xmlns="http://www.w3.org/2000/svg">
<g id="vuesax/linear/profile">
<g id="profile">
<path id="Vector" d="M13.0531 10.87C12.9531 10.86 12.8331 10.86 12.7231 10.87C10.3431 10.79 8.45312 8.84 8.45312 6.44C8.45312 3.99 10.4331 2 12.8931 2C15.3431 2 17.3331 3.99 17.3331 6.44C17.3231 8.84 15.4331 10.79 13.0531 10.87Z" fill="white" stroke="white" stroke-width="1.5" stroke-linecap="round" stroke-linejoin="round"/>
<path id="Vector_2" d="M8.05328 14.56C5.63328 16.18 5.63328 18.82 8.05328 20.43C10.8033 22.27 15.3133 22.27 18.0633 20.43C20.4833 18.81 20.4833 16.17 18.0633 14.56C15.3233 12.73 10.8133 12.73 8.05328 14.56Z" fill="white" stroke="white" stroke-width="1.5" stroke-linecap="round" stroke-linejoin="round"/>
</g>
</g>
</svg>
