<svg width="34" height="34" viewBox="0 0 34 34" fill="none" xmlns="http://www.w3.org/2000/svg">
<g id="Search">
<path id="Vector" d="M21.3091 20.1646C22.5884 18.616 23.3963 16.6299 23.3963 14.4418C23.3963 9.52694 19.3903 5.521 14.4755 5.521C9.56063 5.521 5.55469 9.52694 5.55469 14.4418C5.55469 19.3566 9.56063 23.3626 14.4755 23.3626C16.6299 23.3626 18.6497 22.5883 20.1983 21.2755L27.1329 28.2101C27.3012 28.3784 27.5032 28.4457 27.7052 28.4457C27.9072 28.4457 28.1091 28.3784 28.2775 28.2101C28.5804 27.9071 28.5804 27.3685 28.2775 27.0655L21.3091 20.1646ZM14.4418 21.7467C10.4022 21.7467 7.13687 18.4814 7.13687 14.4418C7.13687 10.4022 10.4022 7.13684 14.4418 7.13684C18.4814 7.13684 21.7468 10.4022 21.7468 14.4418C21.7468 18.4814 18.4814 21.7467 14.4418 21.7467Z" fill="#A6ABAC"/>
</g>
</svg>
