<svg width="18" height="18" viewBox="0 0 18 18" fill="none" xmlns="http://www.w3.org/2000/svg">
<g id="Icons/Twitter/Line" clip-path="url(#clip0_23_9970)">
<path id="Vector" fill-rule="evenodd" clip-rule="evenodd" d="M3.01745 10.0077C1.8353 10.011 1.07219 11.3577 1.80047 12.378C2.84344 13.8391 4.73474 15.0117 7.89222 15.0117C12.7854 15.0117 16.7132 11.0241 16.1633 6.31286L16.9689 4.70174C17.5275 3.58443 16.5568 2.31339 15.3318 2.55838L14.2676 2.77123C13.9854 2.62235 13.6934 2.51001 13.4438 2.42862C12.9575 2.27 12.3688 2.14453 11.8239 2.14453C10.845 2.14453 10.0002 2.39566 9.32884 2.89936C8.66511 3.3974 8.29125 4.05191 8.08609 4.65295C7.99151 4.93 7.92854 5.20788 7.88813 5.47458C7.50835 5.35506 7.12111 5.19424 6.742 4.99787C5.8819 4.55235 5.1864 3.98756 4.79405 3.49238C4.1358 2.66158 2.74083 2.72318 2.25132 3.80312C1.56139 5.32521 1.75065 7.12947 2.3708 8.58735C2.57867 9.07594 2.84906 9.55896 3.17939 10.0066C3.12284 10.0072 3.06874 10.0075 3.01745 10.0077ZM7.89215 13.582C5.13047 13.582 3.70244 12.5817 2.96405 11.5474C2.93087 11.5009 2.96432 11.4375 3.02142 11.4374C3.77261 11.4352 5.31452 11.3997 6.33146 10.8045C6.38405 10.7737 6.37248 10.6961 6.31472 10.6768C3.94418 9.87971 2.59667 6.50407 3.55341 4.39336C3.57534 4.34496 3.6404 4.33858 3.6734 4.38023C4.7663 5.75962 7.15588 7.11069 9.23491 7.14766C9.28002 7.14844 9.31412 7.10748 9.30726 7.06289C9.22348 6.51975 8.90358 3.57422 11.8238 3.57422C12.5211 3.57422 13.5586 3.91436 13.9408 4.26283C13.9585 4.27893 13.9824 4.28625 14.0059 4.28156L15.6121 3.96031C15.6704 3.94864 15.7167 4.00917 15.6901 4.06237L14.6938 6.05486C14.6869 6.06869 14.6847 6.08457 14.6874 6.0998C15.3851 10.0221 12.1726 13.582 7.89215 13.582Z" fill="#777E91"/>
</g>
<defs>
<clipPath id="clip0_23_9970">
<rect width="17.1562" height="17.1562" fill="white" transform="translate(0.744141)"/>
</clipPath>
</defs>
</svg>
