<svg width="34" height="30" viewBox="0 0 34 30" fill="none" xmlns="http://www.w3.org/2000/svg">
<g id="Artboard 2 1" clip-path="url(#clip0_5_27)">
<g id="Group 1000010966">
<path id="Vector" fill-rule="evenodd" clip-rule="evenodd" d="M8.24323 26.6973C6.78826 28.0149 4.83613 28.4128 3.08367 27.5774C-0.450622 25.8896 -0.141531 21.4588 0.49323 18.3099C1.01667 15.71 1.65285 13.9355 2.40201 11.8458C2.69736 11.0218 3.01048 10.1487 3.34113 9.15655L3.41573 8.93297C4.19024 6.60946 5.94649 3.20354 8.70509 2.88569C10.5618 2.67205 12.2484 3.82812 13.4094 5.17746C14.412 6.21629 15.2014 7.45312 15.9864 8.68333L17.0477 10.3176L17.056 10.3043C17.5287 9.54996 17.8937 8.96755 18.1218 8.63311C19.4484 6.5763 20.8854 4.34848 22.9872 3.31818C26.9132 1.394 29.1451 5.17746 30.5861 8.71056C32.1846 12.6297 32.9745 15.3308 33.6879 19.3205C34.2537 22.4834 34.2552 26.8496 30.5605 28.1174C28.8372 28.7088 26.3941 28.5532 23.2935 24.2271C23.0291 23.8581 22.7631 23.4903 22.4972 23.1225L22.4967 23.1218C21.5711 21.8413 20.6452 20.5609 19.7847 19.2353C18.9929 18.1031 18.1867 16.7841 17.348 15.4118C17.2684 15.2818 17.1886 15.151 17.1086 15.02L10.5696 24.0992C9.83013 25.0964 9.05492 25.9623 8.24347 26.6975L8.24323 26.6973ZM10.278 6.30037C8.89054 5.2767 7.93272 6.33092 7.3008 7.53531C6.51824 9.02392 6.11891 10.2219 5.48865 12.112L5.48676 12.1174L5.48581 12.12C5.45621 12.2089 5.42613 12.2991 5.39533 12.3912C5.12769 13.1913 4.90174 13.795 4.69568 14.3464C4.32974 15.3249 4.02563 16.138 3.65945 17.5903C3.52848 18.11 3.44771 18.6706 3.36647 19.2353C3.31294 19.6078 3.25894 19.9821 3.19025 20.3475C3.1012 20.8231 3.08035 21.6019 3.12796 22.6838C3.19546 24.1871 4.87 25.5452 5.94483 24.7174C9.24108 22.1791 13.0705 16.5567 15.6017 12.6053C14.0051 10.1262 12.2652 7.76719 10.2778 6.30084L10.278 6.30037ZM30.0032 25.0928C28.5762 26.0938 26.8893 24.3065 25.9296 23.0644C23.7979 20.3054 21.7201 17.4544 19.7973 14.5523L18.682 12.8348L21.8446 8.44363C22.5557 7.41096 24.2176 5.11801 25.6994 6.15068C26.7321 6.87047 27.5283 9.0566 27.9364 10.2243C27.9788 10.3453 28.0281 10.4846 28.0833 10.64C28.1316 10.7764 28.1837 10.9232 28.2394 11.0798C29.5148 14.6655 32.5806 23.2847 30.0032 25.0933V25.0928Z" fill="#FFBB33"/>
<path id="Vector_2" d="M16.9996 8.43369C17.5146 8.43369 18.3542 7.71556 18.971 6.98629C21.0057 4.57989 21.9595 2.79924 25.2662 2.79924C28.2065 2.79924 29.7811 6.98629 29.7811 6.98629C28.9102 4.73289 25.3934 5.59716 24.5045 7.52915C22.8667 10.5016 20.2132 15.1778 20.2132 15.1778C19.0901 16.7656 18.5219 17.7426 16.9999 17.7426C15.4779 17.7426 14.6948 16.2422 13.9942 15.083C13.9942 15.083 11.26 10.554 9.49502 7.52915C8.25653 5.4065 5.08935 4.73266 4.21822 6.98629C4.21822 6.98629 5.9837 2.79924 8.92374 2.79924C12.1667 2.79924 13.3114 5.15212 14.9011 6.98629C15.5532 7.73853 16.4845 8.43369 16.9996 8.43369Z" fill="url(#paint0_linear_5_27)"/>
</g>
</g>
<defs>
<linearGradient id="paint0_linear_5_27" x1="7.66085" y1="16.6576" x2="22.5862" y2="0.564787" gradientUnits="userSpaceOnUse">
<stop stop-color="#FF960B"/>
<stop offset="1" stop-color="#FFEE33"/>
</linearGradient>
<clipPath id="clip0_5_27">
<rect width="33.3808" height="28.9302" fill="white" transform="translate(0.0970001 0.800446)"/>
</clipPath>
</defs>
</svg>
